<svg xmlns="http://www.w3.org/2000/svg" width="14294.392" height="31893.721" version="1.2" viewBox="0 0 2.152 4.802"><path fill="currentColor" d="M1.316.892v.02c0 .444.344.772.584 1.136.012-.044.016-.092.016-.14 0-.372-.34-.748-.6-1.016zm0-.852c0 .7.772 1.168.772 1.868 0 .116-.028.232-.076.336.068.14.116.284.116.444 0 .144-.036.288-.096.42.072.14.12.288.12.452 0 .24-.064.476-.168.692-.02.032-.048.044-.076.044-.052 0-.104-.044-.092-.108.104-.196.168-.408.168-.628 0-.364-.38-.7-.668-.932v.412h-.064v-3h.064zm0 1.72v.02c0 .448.356.776.604 1.14.024-.076.036-.152.036-.232 0-.36-.364-.692-.64-.928z"/><rect width=".13" height="4.062" x="-.065" y="-2.75" fill="currentColor" transform="translate(1.25 2.75)" ry=".04"/><a transform="translate(-107.08 -5.595)"><path fill="currentColor" d="M107.96 9.293c.223 0 .435.116.435.364 0 .288-.224.484-.412.596-.144.084-.304.144-.468.144-.224 0-.436-.116-.436-.364 0-.288.222-.484.41-.596.144-.084.304-.144.47-.144z"/></a></svg>