<svg xmlns="http://www.w3.org/2000/svg" width="12.66" height="26.65" version="1"><path fill-rule="evenodd" d="M5.34.57C4.4.75 3.7 1.4 3.38 2.3c-.08.27-.08.34-.08.74 0 .54.03.83.3 1.26.35.7 1.1 1.3 1.96 1.5.9.25 2.33.07 4.05-.5.3-.1.5-.18.5-.15 0 .05-1.6 5.28-1.7 5.46-.2.5-.8 1.37-1.3 1.9-.5.5-.75.6-1.14.44-.32-.16-.43-.35-.65-1.32-.2-.7-.32-1.1-.6-1.4-.76-.8-2.05-.9-3.05-.27-.47.32-.83.82-1.04 1.36-.1.28-.1.36-.1.75 0 .55.06.84.3 1.27.37.73 1.1 1.3 1.98 1.5.4.13 1.4.13 2.1 0 .55-.1 1.24-.27 1.92-.5.3-.1.5-.16.5-.12 0 0-3.5 11.44-3.6 11.6 0 .05.3.26.6.33.3.13.6.13.87 0 .28-.06.57-.23.57-.34.03-.04 1.47-5.45 3.23-12l3.2-11.96-.08-.1c-.17-.2-.46-.25-.7-.14-.16.07-.16.07-.58.7-.36.6-.87 1.2-1.16 1.48-.4.33-.6.4-.96.26-.3-.2-.43-.37-.64-1.34-.22-.95-.47-1.4-1-1.75C6.56.58 5.92.47 5.34.6z"/></svg>