<svg xmlns="http://www.w3.org/2000/svg" width="16.89" height="44.57" version="1"><path fill-rule="evenodd" d="M8.93.56c-.935.182-1.653.83-1.97 1.723-.077.288-.077.358-.077.752 0 .393 0 .54.077.753.247.794.753 1.398 1.54 1.757.57.288.788.324 1.576.324.542 0 .752 0 1.188-.08.57-.11 1.357-.33 1.97-.54l.393-.15-.036.14c-.03.07-.28 1.32-.61 2.76-.57 2.51-.6 2.65-.78 2.98-.39.82-.96 1.61-1.36 1.86-.21.14-.39.14-.64.03-.32-.18-.43-.36-.64-1.33-.18-.72-.32-1.11-.61-1.4-.75-.82-2.04-.93-3.05-.28-.46.313-.82.82-1.03 1.353-.07.29-.07.36-.07.755 0 .54.038.83.29 1.26.36.72 1.11 1.294 1.978 1.504.393.113 1.4.113 2.08 0 .57-.105 1.25-.29 1.934-.5.32-.105.54-.18.574-.18 0 .035-1.22 5.42-1.29 5.6-.22.464-.79 1.364-1.216 1.83-.474.43-.684.51-1.08.36-.325-.18-.44-.36-.65-1.33-.18-.72-.322-1.11-.61-1.39-.752-.83-2.046-.94-3.05-.29-.465.32-.823.82-1.043 1.362-.07.28-.07.356-.07.75 0 .533.035.823.29 1.25.357.714 1.11 1.29 1.97 1.5.93.25 2.478.04 4.237-.533.247-.11.5-.182.5-.182 0 .048-.29 1.23-.61 2.698-.53 2.51-.57 2.69-.75 3.01-.29.61-.93 1.477-1.367 1.87-.36.32-.605.39-.965.246-.32-.175-.434-.36-.644-1.32-.182-.72-.322-1.11-.61-1.4-.753-.83-2.047-.935-3.05-.29-.47.33-.827.83-1.037 1.37-.077.283-.077.353-.077.75 0 .532.035.82.29 1.25.357.72 1.11 1.293 1.974 1.51.93.246 2.72 0 4.48-.613.22-.07.36-.1.36-.1 0 .037-2.51 11.29-2.613 11.65 0 .08.038.116.178.186.22.14.58.257.83.257s.607-.115.825-.256c.14-.07.18-.104.22-.286 0-.102 1.89-9.54 4.23-20.98C14.99 4.1 15.45 1.74 15.41 1.66c-.1-.175-.243-.246-.46-.246-.32 0-.39.07-.716.684-.464.89-.936 1.54-1.258 1.79-.18.14-.36.14-.64.033-.327-.18-.44-.36-.65-1.33-.22-.97-.47-1.4-1.008-1.753C10.14.527 9.5.42 8.93.56z"/></svg>