<?xml version="1.0" encoding="UTF-8" standalone="no"?>
<!-- Created with Inkscape (http://www.inkscape.org/) -->
<svg
   xmlns:dc="http://purl.org/dc/elements/1.1/"
   xmlns:cc="http://creativecommons.org/ns#"
   xmlns:rdf="http://www.w3.org/1999/02/22-rdf-syntax-ns#"
   xmlns:svg="http://www.w3.org/2000/svg"
   xmlns="http://www.w3.org/2000/svg"
   xmlns:sodipodi="http://sodipodi.sourceforge.net/DTD/sodipodi-0.dtd"
   xmlns:inkscape="http://www.inkscape.org/namespaces/inkscape"
   width="30.274567"
   height="49.999996"
   id="svg2"
   sodipodi:version="0.32"
   inkscape:version="0.46"
   version="1.0"
   sodipodi:docname="Allabreve.svg"
   inkscape:output_extension="org.inkscape.output.svg.inkscape">
  <defs
     id="defs4">
    <inkscape:perspective
       sodipodi:type="inkscape:persp3d"
       inkscape:vp_x="0 : 526.18109 : 1"
       inkscape:vp_y="0 : 1000 : 0"
       inkscape:vp_z="744.09448 : 526.18109 : 1"
       inkscape:persp3d-origin="372.04724 : 350.78739 : 1"
       id="perspective10" />
  </defs>
  <sodipodi:namedview
     id="base"
     pagecolor="#ffffff"
     bordercolor="#666666"
     borderopacity="1.0"
     gridtolerance="10000"
     guidetolerance="10"
     objecttolerance="10"
     inkscape:pageopacity="0.0"
     inkscape:pageshadow="2"
     inkscape:zoom="16.300001"
     inkscape:cx="22.468571"
     inkscape:cy="24.999998"
     inkscape:document-units="px"
     inkscape:current-layer="layer1"
     showgrid="false"
     inkscape:window-width="1400"
     inkscape:window-height="1000"
     inkscape:window-x="-8"
     inkscape:window-y="-8" />
  <metadata
     id="metadata7">
    <rdf:RDF>
      <cc:Work
         rdf:about="">
        <dc:format>image/svg+xml</dc:format>
        <dc:type
           rdf:resource="http://purl.org/dc/dcmitype/StillImage" />
      </cc:Work>
    </rdf:RDF>
  </metadata>
  <g
     inkscape:label="Layer 1"
     inkscape:groupmode="layer"
     id="layer1"
     transform="translate(-354.30569,-630.60811)">
    <path
       style="font-size:40px;font-style:normal;font-variant:normal;font-weight:normal;font-stretch:normal;text-align:start;line-height:100%;writing-mode:lr-tb;text-anchor:start;fill:#000000;fill-opacity:1;stroke:none;stroke-width:1px;stroke-linecap:butt;stroke-linejoin:miter;stroke-opacity:1;font-family:Emmentaler;-inkscape-font-specification:Emmentaler"
       d="M 367.92121,632.74039 C 367.76079,632.80211 367.6374,632.87613 367.55104,632.96249 C 367.46466,633.04888 367.39062,633.17226 367.32894,633.33264 C 367.26586,633.40532 367.22748,633.62195 367.21377,633.98248 C 367.20006,634.34306 367.19457,635.00389 367.19732,635.96489 C 367.19869,636.90129 367.19594,637.54564 367.1891,637.89797 C 367.18224,638.25031 367.16304,638.41758 367.13152,638.39974 C 366.13894,638.71508 365.34376,638.98926 364.74603,639.22233 C 364.1483,639.45539 363.58345,639.7296 363.05154,640.0449 C 361.83137,640.73587 360.75104,641.59136 359.81056,642.61135 C 358.87007,643.63135 358.08588,644.81587 357.45798,646.16489 C 356.96992,647.11224 356.58056,648.11304 356.28992,649.16732 C 355.99926,650.2216 355.77443,651.37046 355.61539,652.61391 C 355.54959,653.35698 355.51668,654.35505 355.51668,655.60812 C 355.5167,656.86117 355.5496,657.85924 355.61539,658.6023 C 355.84435,660.46955 356.24193,662.14761 356.80813,663.6365 C 357.37436,665.12536 358.11742,666.47438 359.03735,667.68358 C 359.54596,668.35123 360.15741,668.9901 360.87168,669.6002 C 361.58595,670.21027 362.31256,670.73398 363.05154,671.17133 C 363.58345,671.48663 364.1483,671.76082 364.74603,671.99391 C 365.34378,672.22695 366.13894,672.50115 367.13152,672.81648 C 367.16304,672.79865 367.18224,672.96591 367.1891,673.31826 C 367.19594,673.67058 367.19869,674.31493 367.19732,675.25132 C 367.19457,676.29872 367.20006,676.9842 367.21377,677.30778 C 367.22748,677.6313 367.26586,677.82323 367.32894,677.88357 C 367.44819,678.17283 367.62095,678.3675 367.84717,678.46761 C 368.07337,678.56767 368.42708,678.61428 368.90829,678.60745 C 369.35795,678.61428 369.69247,678.56767 369.91184,678.46761 C 370.13118,678.3675 370.30119,678.17283 370.42184,677.88357 C 370.48489,677.81912 370.52329,677.63541 370.53702,677.33245 C 370.5507,677.02945 370.55619,676.40155 370.55347,675.44874 L 370.55347,673.27713 L 371.80378,673.27713 C 372.492,673.28259 373.04036,673.25519 373.44894,673.19487 C 373.85746,673.13453 374.34005,673.00841 374.89668,672.81648 C 376.48836,672.27905 377.92787,671.31389 379.21522,669.92101 C 380.50253,668.52809 381.56368,666.77325 382.3986,664.6565 C 382.60148,664.17801 382.78794,663.67076 382.95796,663.13472 C 383.12793,662.59866 383.24858,662.14077 383.3199,661.761 C 383.41584,661.32915 383.37197,660.97543 383.18829,660.69988 C 383.00455,660.42432 382.69745,660.25158 382.26701,660.18166 C 381.96125,660.1515 381.68432,660.21181 381.43618,660.36263 C 381.18802,660.51342 381.02624,660.73827 380.95087,661.03715 C 380.67255,662.04617 380.43947,662.82486 380.25167,663.37327 C 380.06383,663.92165 379.81431,664.50293 379.50313,665.11713 C 378.83819,666.50728 378.04576,667.65889 377.12587,668.57198 C 376.20593,669.48502 375.19963,670.11019 374.107,670.44745 C 373.60247,670.5818 373.06505,670.67502 372.49474,670.72713 C 371.9244,670.77922 371.38699,670.77373 370.88249,670.71068 L 370.55347,670.71068 L 370.55347,655.64102 L 370.55347,640.50554 L 370.88249,640.50554 C 371.81335,640.37942 372.73191,640.43426 373.63812,640.67005 C 374.54432,640.90586 375.3806,641.28975 376.14699,641.82168 C 376.42802,642.03282 376.75431,642.31797 377.12587,642.67716 C 377.49738,643.03636 377.80721,643.38732 378.05538,643.73005 L 378.45023,644.1907 L 378.05538,644.25651 C 377.16149,644.39363 376.39924,644.74458 375.76862,645.30941 C 375.13795,645.87426 374.67183,646.62007 374.37023,647.54683 C 374.30714,647.73328 374.26876,647.91973 374.25508,648.10619 C 374.24133,648.29263 374.23586,648.54489 374.23862,648.86295 C 374.23586,649.23998 374.24133,649.5224 374.25508,649.71021 C 374.26876,649.89803 374.30714,650.09821 374.37023,650.31069 C 374.81989,651.62683 375.7631,652.5481 377.19991,653.07456 C 377.93061,653.3378 378.64076,653.4036 379.33039,653.27199 C 380.01996,653.14037 380.64786,652.81133 381.21409,652.28487 C 381.80771,651.75022 382.21625,651.10861 382.43974,650.36006 C 382.66319,649.61151 382.69334,648.80539 382.53021,647.94166 C 382.11615,645.84134 381.33197,643.98781 380.17764,642.38103 C 379.02326,640.77427 377.61392,639.57878 375.9496,638.79457 C 375.28328,638.47105 374.64165,638.24621 374.02474,638.12006 C 373.40778,637.99394 372.66747,637.93362 371.80378,637.93909 L 370.55347,637.87329 L 370.55347,635.76748 C 370.55619,634.87226 370.5507,634.26081 370.53702,633.93314 C 370.52327,633.6055 370.48489,633.40532 370.42184,633.33264 C 370.33409,633.0434 370.18053,632.84871 369.9612,632.74862 C 369.74182,632.64855 369.39086,632.60194 368.90829,632.60878 C 368.62037,632.60606 368.40652,632.61155 368.26669,632.62523 C 368.12684,632.63896 368.01167,632.67734 367.92121,632.74039 L 367.92121,632.74039 z M 367.13152,669.39455 C 367.12465,669.39181 367.07255,669.34793 366.97524,669.26294 C 366.87788,669.17792 366.77643,669.06825 366.67088,668.93389 C 366.0553,668.29503 365.59192,667.4505 365.28072,666.40036 C 364.96951,665.35019 364.75288,663.97922 364.63087,662.28746 C 364.58699,661.67448 364.55774,660.40709 364.54313,658.48531 C 364.52851,656.56352 364.52851,654.63809 364.54313,652.70898 C 364.55774,650.77986 364.58699,649.49787 364.63087,648.86295 C 364.75288,647.20271 364.96951,645.85095 365.28072,644.80764 C 365.59192,643.76434 366.0553,642.92257 366.67088,642.28231 C 366.77643,642.14798 366.87788,642.03829 366.97524,641.95329 C 367.07255,641.8683 367.12465,641.82443 367.13152,641.82168 C 367.16304,641.88063 367.18224,643.14466 367.1891,645.61377 C 367.19594,648.08288 367.19869,651.40336 367.19732,655.57521 C 367.19869,659.77859 367.19594,663.11825 367.1891,665.59424 C 367.18224,668.07018 367.16304,669.33696 367.13152,669.39455 L 367.13152,669.39455 z"
       id="text2383" />
  </g>
</svg>
