<svg xmlns="http://www.w3.org/2000/svg" width="11503.53" height="18597.01" viewBox="0 0 10.78 17.43"><path fill="currentColor" d="M8.94 8.04C7.72 8.04 7.07 7 7.07 6.18c0-.95.68-1.92 1.8-1.92.1 0 .22 0 .35.02-.7-.92-1.8-1.47-3-1.47H5.9v11.84l.33.03c2 0 3.46-1.75 3.93-3.77.05-.18.18-.25.3-.25.15 0 .32.1.32.3 0 2.34-2.6 4.33-4.55 4.33l-.33-.03v1.95c0 .14-.1.23-.25.23h-.42c-.15 0-.25-.1-.25-.24v-2.05c-1.27-.2-2.46-.72-3.34-1.65C.42 12.26 0 10.5 0 8.73s.42-3.54 1.64-4.8C2.52 3 3.7 2.47 4.98 2.27V.25c0-.15.1-.25.25-.25h.42c.15 0 .25.1.25.25V2.2h.33c2.16 0 3.98 1.6 4.36 3.73v.32c0 1-.76 1.8-1.68 1.8zm-3.96 6.4V3C3.54 3.53 3.4 5.15 3.4 7.44V10c0 2.28.14 3.9 1.58 4.45z"/></svg>