<svg xmlns="http://www.w3.org/2000/svg" width="14294.392" height="43516.8" version="1.2" viewBox="0 0 2.152 6.552"><path fill="currentColor" d="M1.316.888v.08c0 .444.336.776.576 1.14.016-.06.024-.12.024-.184 0-.376-.34-.76-.6-1.036zm0-.848c0 .704.772 1.18.772 1.884 0 .132-.028.264-.076.388.068.14.116.288.116.452 0 .168-.044.328-.116.48.068.14.116.284.116.448 0 .168-.044.328-.116.48.068.14.116.288.116.452 0 .144-.056.28-.14.396.096.164.164.336.164.532 0 .244-.064.48-.168.7-.02.032-.048.044-.076.044-.052 0-.104-.044-.092-.108.104-.196.168-.412.168-.636 0-.368-.38-.708-.668-.944v.432h-.064v-5h.064zm0 1.78v.08c0 .448.348.784.588 1.156.036-.092.052-.192.052-.292 0-.364-.364-.704-.64-.944zm0 .928v.08c0 .448.348.784.588 1.156.036-.092.052-.192.052-.292 0-.364-.364-.704-.64-.944zm0 .932v.08c0 .432.328.756.572 1.108.044-.072.068-.156.068-.244 0-.364-.364-.704-.64-.944z"/><rect width=".13" height="5.812" x="-.065" y="-4.5" fill="currentColor" transform="translate(1.25 4.5)" ry=".04"/><a transform="translate(-111.637 -3.845)"><path fill="currentColor" d="M112.517 9.293c.224 0 .436.116.436.364 0 .288-.224.484-.412.596-.142.084-.302.144-.466.144-.224 0-.436-.116-.436-.364 0-.288.224-.484.412-.596.143-.084.303-.144.467-.144z"/></a></svg>