<svg xmlns="http://www.w3.org/2000/svg" width="14294.392" height="26912.404" version="1.2" viewBox="0 0 2.152 4.052"><path fill="currentColor" d="M1.316.04c0 .712.812 1.168.812 1.88 0 .132-.036.26-.092.38.072.148.116.3.116.468 0 .252-.064.5-.168.732-.02.032-.048.048-.076.048-.052 0-.104-.044-.092-.108.104-.208.168-.44.168-.672 0-.388-.38-.764-.668-1.028v.3h-.064v-2h.064zm.612 2.068c.02-.06.028-.124.028-.188 0-.384-.364-.76-.64-1.028 0 .472.364.824.612 1.216z"/><rect width=".13" height="3.312" x="-.065" y="-2" fill="currentColor" transform="translate(1.25 2)" ry=".04"/><a transform="translate(-101.474 -6.345)"><path fill="currentColor" d="M102.354 9.293c.224 0 .436.116.436.364 0 .288-.224.484-.412.596-.144.084-.304.144-.468.144-.224 0-.436-.116-.436-.364 0-.288.224-.484.412-.596.144-.084.304-.144.468-.144z"/></a></svg>