<svg xmlns="http://www.w3.org/2000/svg" width="9232.043" height="26912.404" version="1.2" viewBox="0 0 1.39 4.052"><rect width=".13" height="3.239" x="-.065" y="-2" fill="currentColor" transform="translate(1.325 2)" ry=".04"/><a transform="translate(-78.595 -6.345)"><path fill="currentColor" d="M79.855 9.585c0-.096-.084-.164-.168-.164-.016 0-.032 0-.048.006-.126.036-.31.16-.458.256-.148.097-.336.213-.416.313-.028.032-.044.072-.044.112 0 .096.084.164.168.164.017 0 .033 0 .05-.004.123-.036.31-.16.46-.256.147-.097.335-.213.415-.313.028-.032.04-.072.04-.112zm-.204-.288c.19 0 .334.084.334.288 0 .076-.016.148-.04.224-.048.15-.128.294-.26.382-.216.144-.452.204-.752.204-.187 0-.335-.088-.335-.292 0-.076.02-.148.044-.224.048-.15.124-.295.256-.383.216-.144.456-.2.756-.2z"/></a></svg>