<svg xmlns="http://www.w3.org/2000/svg" width="14294.392" height="36875.041" version="1.2" viewBox="0 0 2.152 5.552"><path fill="currentColor" d="M1.316.892V.94c0 .448.34.788.58 1.156.012-.052.02-.108.02-.16 0-.38-.34-.764-.6-1.044zm0-.852c0 .708.772 1.188.772 1.896 0 .124-.028.248-.076.36.068.14.116.288.116.452 0 .156-.044.308-.116.448.068.14.116.288.116.452 0 .132-.056.26-.14.364.096.164.164.34.164.536 0 .244-.064.484-.168.704-.02.032-.048.044-.076.044-.052 0-.104-.044-.092-.108.104-.2.168-.416.168-.64 0-.372-.38-.72-.668-.96v.452h-.064v-4h.064zm0 1.752v.048c0 .456.352.792.592 1.168.032-.084.048-.168.048-.26 0-.368-.364-.712-.64-.956zm0 .896v.052c0 .44.332.768.576 1.124.04-.064.064-.14.064-.216 0-.368-.364-.716-.64-.96z"/><rect width=".13" height="4.812" x="-.065" y="-3.5" fill="currentColor" transform="translate(1.25 3.5)" ry=".04"/><a transform="translate(-98.03 -3.845)"><path fill="currentColor" d="M98.91 8.293c.225 0 .437.116.437.364 0 .288-.224.484-.412.596-.144.084-.304.144-.468.144-.224 0-.436-.116-.436-.364 0-.288.226-.484.414-.596.144-.084.304-.144.468-.144z"/></a></svg>