<svg xmlns="http://www.w3.org/2000/svg" width="14294.392" height="26912.404" version="1.2" viewBox="0 0 2.152 4.052"><path fill="currentColor" d="M1.316.04c0 .792.836 1.34.836 2.132 0 .284-.064.564-.168.828-.02.032-.048.048-.076.048-.052 0-.104-.044-.092-.108.104-.244.168-.504.168-.768 0-.416-.38-.832-.668-1.132h-.064v-1h.064z"/><rect width=".13" height="3.312" x="-.065" y="-2" fill="currentColor" transform="translate(1.25 2)" ry=".04"/><a transform="translate(-94.834 -6.345)"><path fill="currentColor" d="M95.713 9.293c.225 0 .437.116.437.364 0 .288-.225.484-.413.596-.143.084-.303.144-.467.144-.225 0-.437-.116-.437-.364 0-.288.224-.484.412-.596.144-.084.304-.144.468-.144z"/></a></svg>