<svg xmlns="http://www.w3.org/2000/svg" width="1200" height="1200" xmlns:xlink="http://www.w3.org/1999/xlink" version="1" viewBox="0 0 1200 1200"><path fill="none" stroke="#131516" stroke-width="6.9" d="M4.2 395.8h791.6M4.2 635.8h791.6M4.2 515.8h791.6M4.2 275.8h791.6M4.2 155.8h791.6" transform="matrix(1.5 0 0 1 0 200)"/><path fill="none" stroke="#000" stroke-width="6.5" d="M751.6 154.3v483" stroke-linecap="round" transform="matrix(1.5 0 0 1 0 200)"/><path d="M1156.8 351.8h41v488h-41z"/><path fill="#131516" fill-rule="evenodd" stroke="#131516" stroke-width=".6" d="M201.7 653c-12.5 2.7-24 9.5-35 20.4-11 11-17 23.8-18 37.8-.6 8.8 1.7 19 6.8 30 5 11.2 13.4 19.6 24.4 25.4 3 1 5 3.2 5 6 0 1-2 2-5 2.5-18-5-33-16-43-32-11-15-16-33-15-52 2-20 9-39 22-56s29-28 49-34l-9-72c-33 24-60 49-81 75-20 26-32 56-35 88-1 15 1 29 6 43s12 27 22 39c21 25 50 38 85 42 12 0 25-1 40-4l-20-159zm14.6-1L237 808c31.7-10.2 49-36 51.8-77.3-.8-14-4-26.6-10-38-6-11.8-14-21.2-25-28.3-10.7-7.2-23-11.3-37.5-12.3zm-26.8-210.8c7-3.5 15-10 24-19.2 8.8-9 17.6-20 26-32.2 8.8-12.4 16-25.2 21.5-38.3 5.5-13 8.6-25.3 9.4-37 .3-5 .3-10-.4-14.4-.3-7-2.2-13-5.7-17-3.6-4-8.2-6-14.3-6-12-1-23.3 6-34 20-8.3 12-15.5 27-21 44-6 17-9.8 34-11.4 52-.3 20 1.8 37 6 50zM176 452c-6.7-33-9.5-66.4-8-100 1.6-21.7 5.2-41.7 10.7-60.3 5.3-18.5 12.2-34.3 20.8-47.8 8.4-14 17.7-24 28-30 9-6 15.4-9 18.8-9 2.6 0 4.7 1 6.6 3 1 2 4 5 7 9 21 35 31 77 27 124-2 22-6 44-14 66s-17 42-30 60-28 35-45 48l11 80c9-1 15-1 18-1 15 1 29 5 41 12 12 7.5 22 17 30 28.5 8 11.2 14 24 18 38.4 3 14 5 29 4 44-2 23.6-10 45-23 63.3-14 18.4-34 31.3-59 39 1 10 2 24 5 42.6l6 44.6c1 11 1 21.2 0 31.4-1.3 16-6 30-14.5 42-9 12-20 21-34 26.8-13.5 6-28 8.4-43.8 7.3-22-2-41-9-56.8-22.4-14-12.8-22-30-21-51 1-9.6 4-18 8.5-26.4 4.7-8 10.6-14.4 18-19 7-5 15.6-7.3 25-7.2 8 .5 15 3.2 22 8 6.4 5 11.6 11 15.3 18.7 3.3 8 5 16 4.3 25 0 12-5 22-14 29-8 8-19 11-31 11l-4.2-.3c7 13 19.7 20 37.5 21 9 1 18.2 0 28-3 9.4-3 17.6-7.5 24.6-13.5s12-12.7 14.4-19.8c4-8 6.2-19 7.2-33.6 1-9.4 0-19-1-29-1-9.4-3-22.2-6-38-3-15.7-5-28-6-36.2-12.5 2.3-25 3-38 2-22-1.4-42.4-7.2-61.3-17.6-18.4-10-35-24-48.3-41-14-17.5-24-36-31-57s-9.2-42-7.7-64c2-20 7-39 15.5-57s19-35 31.4-51c13-16 26-30 39-42.5 13.5-12.5 31-28.3 53-47.5z"/><path d="M378.7 404.7V318l36-10.2V394l-36 10.7zm70.7-21l-24.7 7.3v-86.3l24.7-7v-36l-24.7 7.2v-89h-10v91l-36 10v-85H369v89l-24.6 7v36l24.7-7v86l-24 7v36l25-7v87h10v-90l36-10v85h10v-89l25-7v-36z"/><path fill="none" stroke="#131516" stroke-width="8.4" d="M-120 835.8h53.7m-53.7-120h53.7m-53.7-120h53.7m-53.7-120h53.7m-53.7-120h53.7"/><path id="a" d="M478.7 584.7V498l36-10.2V574l-36 10.7zm70.7-21l-24.7 7.3v-86.3l24.7-7v-36l-24.7 7.2v-89h-10v91l-36 10v-85H469v89l-24.6 7v36l24.7-7v86l-24 7v36l25-7v87h10v-90l36-10v85h10v-89l25-7v-36z"/><use width="1200" height="1200" transform="translate(100 -240)" xlink:href="#a"/><use width="1200" height="1200" transform="translate(200 -60)" xlink:href="#a"/><use width="1200" height="1200" transform="translate(300 120)" xlink:href="#a"/><use width="1200" height="1200" transform="translate(400 -120)" xlink:href="#a"/></svg>