<svg xmlns="http://www.w3.org/2000/svg" width="10.834" height="36.488" version="1.2" viewBox="0 0 1.74 5.86"><a transform="translate(-62.9 -3.8)"><path fill="currentColor" d="M63.46 9.665l.244-1.316c-.152.05-.308.1-.468.1-.184 0-.348-.138-.348-.32 0-.16.128-.29.288-.29.1 0 .196.06.228.156.04.112.02.236.136.236.072 0 .228-.228.24-.304l.108-.58c-.148.05-.296.095-.452.095-.184 0-.348-.134-.348-.318 0-.16.128-.288.288-.288.1 0 .196.06.228.155.04.113.02.237.136.237.068 0 .212-.22.224-.293l.108-.587c-.14.052-.284.092-.432.092-.184 0-.348-.134-.348-.318 0-.16.128-.29.288-.29.1 0 .196.06.228.157.04.114.02.238.136.238.064 0 .192-.214.204-.282l.112-.592c-.136.05-.276.09-.42.09-.184 0-.348-.132-.348-.316 0-.16.128-.29.288-.29.1 0 .196.06.228.157.04.113.02.237.136.237.06 0 .176-.21.188-.273l.112-.603c-.128.05-.264.09-.4.09-.184 0-.348-.133-.348-.317 0-.16.128-.287.288-.287.1 0 .196.06.228.156.04.112.02.236.136.236.1 0 .132-.31.24-.287.02.002.032.014.04.034l-.948 5.68c-.032.028-.072.04-.112.04-.04 0-.076-.012-.108-.04z"/></a></svg>