<svg xmlns="http://www.w3.org/2000/svg" width="15.58" height="36.6" version="1"><path fill-rule="evenodd" d="M7.997 1.063c-.93.182-1.653.83-1.97 1.723-.077.288-.077.358-.077.752 0 .393 0 .54.077.753.247.8.753 1.4 1.54 1.76.536.29.788.33 1.54.33.936 0 1.723-.14 2.983-.532.322-.113.57-.184.57-.184.033 0-.29 1.26-.72 2.765-.532 2.114-.75 2.796-.822 3.007-.288.543-.9 1.365-1.293 1.724-.36.324-.57.394-.928.253-.324-.178-.436-.36-.647-1.33-.183-.72-.324-1.11-.612-1.4-.752-.824-2.046-.928-3.045-.28-.47.315-.828.82-1.04 1.355-.078.29-.078.36-.078.753 0 .54.043.83.29 1.26.358.717 1.11 1.293 1.974 1.503.39.115 1.4.115 2.08 0 .57-.103 1.25-.287 1.93-.497.32-.106.57-.184.57-.184 0 .036-1.434 5.49-1.51 5.598-.283.616-.86 1.37-1.29 1.797-.463.463-.715.54-1.11.393-.323-.176-.435-.36-.646-1.33-.183-.716-.324-1.11-.61-1.39-.754-.83-2.048-.937-3.047-.29-.47.323-.828.823-1.04 1.365-.078.28-.078.36-.078.75 0 .396 0 .536.075.754.246.79.752 1.4 1.54 1.76.576.287.79.323 1.575.323.576 0 .76 0 1.22-.08.65-.105 1.33-.316 2.085-.533l.464-.184v.113c-.036.14-3.05 11.475-3.087 11.546-.038.147.61.428 1.003.428.394 0 .97-.243 1.006-.424.033-.036 1.756-7.46 3.91-16.496C14.63 2.332 14.63 2.3 14.56 2.184c-.116-.14-.29-.21-.51-.21-.25.034-.358.14-.61.568-.5.866-1.076 1.617-1.393 1.87-.218.14-.402.14-.682.036-.323-.185-.435-.36-.646-1.33-.22-.97-.47-1.4-1.01-1.76-.5-.32-1.15-.424-1.726-.284z"/></svg>