<svg xmlns="http://www.w3.org/2000/svg" width="26.22" height="74.74"><path d="M26.22 19.55C19.38 27.7 15.96 33.8 15.96 37.83c0 3.9 3.25 9.72 9.77 17.5l-2.04 2.9c-3.3-1.93-6.1-2.9-8.46-2.9-3.04 0-4.57 1.83-4.57 5.5 0 3.74 1.67 7.46 5 11.17l-1.83 2.74C4.62 67.9 0 61.8 0 56.46c0-2.72.94-4.88 2.8-6.47 1.75-1.5 4-2.27 6.76-2.27 1.78 0 3.75.47 5.9 1.4L1.34 30.38c6.7-5.9 10.05-11.25 10.05-16.03 0-3.8-2.3-8.57-6.84-14.34h5.62L26.2 19.56" style="-inkscape-font-specification:musica" font-size="144" font-family="musica"/></svg>