<svg xmlns="http://www.w3.org/2000/svg" id="svg1894" width="810" height="1200" version="1" viewBox="0 0 810 1200"><defs id="defs1896"><style id="style6"/></defs><g id="layer1"><g id="g1934" fill="none" fill-rule="evenodd" stroke="#131516" stroke-width="8.4"><path id="path11" d="M12.6 585h791.6"/><path id="path13" d="M12.6 825h791.6"/><path id="path15" d="M12.6 705h791.6"/><path id="path17" d="M12.6 465h791.6"/><path id="path19" d="M12.6 345h791.6"/></g></g><g id="layer2"><path id="path2070" stroke="#131516" stroke-width=".6" d="M44 611c32.7-22 57-39 73-50.4 15.6-11.4 32-25.6 49-42.6s31.4-36.2 43-57.5c9-15.7 17-34 23.4-54.6 6.4-21 9.7-41 10.4-60 0-18-2.3-35-7-50-4.7-16-12.5-29-23.7-40-11-11-25-16-43-16-17 0-34 3.2-49 10-15 7-26 18-32 34 0 1.3-1 3-2 6 1 3 2 5.6 5 7.5 3 2 6 2.6 9 2.6 1 0 5-.5 10-2 6-1 10-2 14-2 11 0 21 4 30 11.7 9 7.5 13 17 13 28 0 7.6-2 15-6.3 22-4.6 7-10.6 12.3-18 16.2-8 4-16.4 6-25.5 6-16.6 0-30.7-5-42.3-15-12-9-17.7-22-17.7-38.6 0-21 6.3-39 19-54 13-15.2 29-26.5 49-34.2 19.6-7 39.5-11 60-11 22 0 43 6 63 17 19.7 11 35.3 27 47 46 11.5 19.8 17.5 40 17.5 62.8 0 39.6-13.3 76.4-40 110.5-26.6 34-59.3 63.5-98.5 89-26 17-68.7 40-127 69.2l-3-11zm288-319.8c0-7.4 2.6-13.6 8-18.6 5.2-5.2 11.6-7.6 19.3-7.6 6.6 0 12.8 3 18.4 8.4 5.6 5.4 8.3 11.8 8.3 18.8 0 7.5-3 14-8.3 19-5.8 5-12.2 7.5-19.5 7.5-7.6 0-14-2.5-18.8-8-5-5.4-7.5-11.8-7.5-19.5zm0 108.3c0-7.4 2.6-13.8 7.6-18.8 5.2-5 11.6-7.6 19.7-7.6 6.6 0 12.6 3 18.4 9 5.4 6 8.3 12 8.3 18 0 8-2.7 15-8 20s-11.5 8-18.7 8c-8 0-14.5-2-19.7-7-5-5-7.7-11.2-7.7-20z"/></g><g id="layer3"><path id="path3276" fill="#fff" stroke-width=".5" d="M654.2 345a88.7 92.3 0 1 1-177.3 0 88.7 92.3 0 1 1 177 0z"/><text id="text3278" x="481" y="397.4" style="text-align:start;line-height:100%;-inkscape-font-specification:Sans" font-size="144" font-family="Sans"><tspan id="tspan3280" x="481" y="397.4">F3</tspan></text></g></svg>