<svg xmlns="http://www.w3.org/2000/svg" id="svg1894" width="810" height="1200" version="1" viewBox="0 0 810 1200"><defs id="defs1896"><style id="style6"/><style id="style2282"/></defs><g id="layer1"><g id="g1934" fill="none" fill-rule="evenodd" stroke="#131516" stroke-width="8.4"><path id="path11" d="M23.4 592.3H815"/><path id="path13" d="M23.4 832.3H815"/><path id="path15" d="M23.4 712.3H815"/><path id="path17" d="M23.4 472.3H815"/><path id="path19" d="M23.4 352.3H815"/></g></g><g id="layer2"><path id="path2432" fill="#131516" stroke="#131516" stroke-width=".6" d="M104 708V237.6h53V708h-53zm80 0V237.6h17V468c8.4-4.2 17-13.2 25.5-27.4 8.6-14 15.8-28.8 21.4-44.5 5-15 8-27 9-35 2 17 6 31 12 41s12 17 19 22 14 7 21 7c17 0 29-8 34-24 4-16 7-36 7-59 0-10.5 0-20-1-28.5s-2-17-4-25.6c-2-8.7-6-16.5-11-23-5-7-11.4-12-19.4-14-7-2-14.4-3-21.4-3-6.6 0-12 1-16 3-4.7 2.3-7 5.7-7.5 9.7 1 3.8 3 8 7.3 13s7 8.7 8.8 11c2 2.4 2.7 5.8 2.7 10.4 0 8-3 15-8.5 20.6-5.5 5.6-13 8.6-22.4 8.6-9 0-16.7-3.2-22-10-6-6.6-9-14.6-9-23.6 1-12 5-22.8 13-31.6 8-9 18-15.4 29.3-20 12-4.3 24-7 36-7 13.6 0 27 3 39 7.8 13 4.8 24 12 33.5 21.2 10 9.2 17.7 20.6 23.3 34 6 13.2 9 28.6 9 45.6 0 23.4-4.7 43-13 58.4-9 16-20 27-34 34.7-13.7 7-28.3 11-43.8 11.6-16-1-29.4-4.6-40-11l-21 34 21.2 34c14-6 29-9 43-9 18 0 33 5.4 46.2 15.4 13 10 23 23 30 39s10.4 32.6 10.4 50c0 18.6-4 36.2-12.4 52.3-8 16.4-20 29-35.3 39-15.4 9.5-33 14.3-52.7 14.3-23-1-42.8-6-58-16-15.6-10-23-24.6-23-44 1-9 4-16.5 10-22s12.5-8 19.5-9c8.4 0 16 3 22.7 9 6.7 6 10 13.3 10 22 0 3.4-.7 6.6-2.3 9.6-1.5 3-4 6.2-7 10.2-3 3.5-5.3 6.3-6.5 8-1.6 2-2.6 4-3 7 0 3.6 2.4 6.6 7 9 4.5 2.4 10.3 4 17.3 4.4 22-1 37-10.3 44-27.7 7.6-18 11-39.8 11-66 0-23-2.4-43.5-8-60.7-5-17-16-26-34-26-15.3 0-27.3 7-36 20.7-8.3 13-14 29-16 47-2.5-15-6.5-30-12.3-44-6-14.2-12.4-27-20.2-37.6-7.3-10.5-15.6-19-24-25v231h-17z"/></g><g id="layer3"><path id="path3276" fill="#fff" stroke-width=".5" d="M691.8 471.4a92.3 92.3 0 1 1-184.6 0 92.3 92.3 0 1 1 184.6 0z"/><text id="text3278" x="511.4" y="523.8" style="text-align:start;line-height:100%;-inkscape-font-specification:Sans" font-size="144" font-family="Sans"><tspan id="tspan3280" x="511.4" y="523.8">C4</tspan></text></g></svg>