<svg xmlns="http://www.w3.org/2000/svg" width="810" height="1200" version="1" viewBox="0 0 810 1200"><path fill="none" fill-rule="evenodd" stroke="#131516" stroke-width="8.4" d="M9.2 587.3h791.6M9.2 827.3h791.6M9.2 707.3h791.6M9.2 467.3h791.6M9.2 347.3h791.6"/><path fill="#131516" fill-rule="evenodd" stroke="#131516" stroke-width=".6" d="M253.2 642c-12.5 2.5-24 9.4-35 20.3-11 11-17 23.7-18 37.7-.6 8.8 1.7 19 6.8 30 5 11.3 13.3 19.7 24.4 25.5 3.8 1 5.4 3 5.3 6 0 1-1.6 1.8-5 2.4-18-6-32.3-17-43-33-10.6-16-15.4-33-14.5-52 2-21 9.6-40 22.6-56 13.3-17 29.6-29 49-35l-9-72c-32.7 23-59.6 48-81 75-21.3 26-33.4 56-36.5 88-.6 14 1.4 29 6 43 4.7 14 12.4 27 22.7 40 22 24 50 38 86 41 12.7 0 25.8-1 40-4l-21-158zm14.5-1l20.7 156c31.7-10.3 49-36.2 52-77.5-1-14-4-26.6-10.2-38-5.8-11.7-14-21-24.8-28.3-10.8-7.2-23.2-11.2-37.7-12.2zM241 430c7-3.5 15-10 24-19.2 8.8-9 17.6-19.8 26-32 8.8-12.6 16-25.4 21.4-38.4 5.6-13 8.6-25.4 9.4-37 .4-5 .3-10-.4-14.5-.3-8-2-13-5.6-18-3.6-4-8.3-6-14.3-7-12-1-23.4 6-34 20-8.3 12-15.6 27-21.2 44-5.8 17-9.6 34-11.2 51 0 20 2 36 6 49zm-13.5 11c-6.7-33-9.5-66.4-8.2-100 1.7-21.6 5.3-41.7 10.8-60.2 6-18.5 13-34.3 21-47.8 9-13.5 18-23.5 28-30 9-5.8 16-8.8 19-8.6 3 .2 5 1.4 7 3.3 2 2 5 5 7 9.3 22 35.5 31 77 28 124.7-1 22.6-6 44.4-13 66-7 21.3-17 41.6-30 60.3-13 18.8-28 34.8-45 48.3l11 80c9-.3 15-.7 19-.5 16 1 29 5.2 41 12.5s22 16.7 30 28.2c8 11.4 14 24.3 18 38.7 4 14.2 6 29 4 44.2-1 23.6-9 44.7-23 63.3-14 18.5-33 31.4-59 39 1 9.8 3 24.2 6 42.7 3 18.7 5 33.5 6 44.5 2 11 2 21 1 31-1 16-6 29-14 41-8 11-19 20-33 26-13 6-28 8-44 7-22-2-40.2-9-56-23s-23-31-22.2-52c1-10 4-18 8.4-26 4.8-8 10.7-15 18-20 7-5 15.7-7 25-7 8 0 15 3 22 8 6.6 4 11.8 11 15.5 18 3.4 8 5 16 4.4 25-.7 12-5.4 22-14 29.5-8.6 7.7-19 11.2-31.3 10.3l-4.6-.7c7 12.4 19.4 19.5 37 21 9 .4 18.8-1 28-4 10-3 18-7.6 25-13.5 7-6 12-13 14.5-20 4-8 6.3-19 7.3-33.3.4-10 0-20-1-29-1-10-3-23-6-38.8-2.6-15.6-4.6-27.8-5.6-36-12 2-24.5 3-38 2-21.4-1.6-42-7-61-17.8-18.4-11-35-24-48.4-41-14-17-24-36-31-57s-11-42-9-64c2-20.8 7-40 15.5-58s19-35 31-50.8c12.5-16 25-30 38.5-42.7 13-12.4 30.5-28.3 52.3-47.5z"/><path fill="#fff" stroke-width=".5" d="M682.3 706.5a98.8 92.3 0 1 1-197.6 0 98.8 92.3 0 1 1 197.6 0z"/><text x="488.8" y="758.9" style="text-align:start;line-height:100%;-inkscape-font-specification:Sans" font-size="144" font-family="Sans"><tspan x="488.8" y="758.9">G4</tspan></text></svg>