<?xml version="1.0" encoding="UTF-8" standalone="no"?>
<!-- Created with Inkscape (http://www.inkscape.org/) -->
<svg
   xmlns:dc="http://purl.org/dc/elements/1.1/"
   xmlns:cc="http://creativecommons.org/ns#"
   xmlns:rdf="http://www.w3.org/1999/02/22-rdf-syntax-ns#"
   xmlns:svg="http://www.w3.org/2000/svg"
   xmlns="http://www.w3.org/2000/svg"
   xmlns:sodipodi="http://sodipodi.sourceforge.net/DTD/sodipodi-0.dtd"
   xmlns:inkscape="http://www.inkscape.org/namespaces/inkscape"
   version="1.0"
   width="810"
   height="1200"
   viewBox="0 0 810 1200"
   id="svg1894"
   sodipodi:version="0.32"
   inkscape:version="0.46"
   sodipodi:docname="French_clef_with_ref.svg"
   inkscape:output_extension="org.inkscape.output.svg.inkscape">
  <metadata
     id="metadata2601">
    <rdf:RDF>
      <cc:Work
         rdf:about="">
        <dc:format>image/svg+xml</dc:format>
        <dc:type
           rdf:resource="http://purl.org/dc/dcmitype/StillImage" />
      </cc:Work>
    </rdf:RDF>
  </metadata>
  <sodipodi:namedview
     inkscape:window-height="890"
     inkscape:window-width="1371"
     inkscape:pageshadow="2"
     inkscape:pageopacity="0.0"
     guidetolerance="10.0"
     gridtolerance="10.0"
     objecttolerance="10.0"
     borderopacity="1.0"
     bordercolor="#666666"
     pagecolor="#ffffff"
     id="base"
     showgrid="false"
     inkscape:zoom="0.54211519"
     inkscape:cx="598.03434"
     inkscape:cy="590.91818"
     inkscape:window-x="212"
     inkscape:window-y="78"
     inkscape:current-layer="layer2" />
  <defs
     id="defs1896">
    <inkscape:perspective
       sodipodi:type="inkscape:persp3d"
       inkscape:vp_x="0 : 600 : 1"
       inkscape:vp_y="0 : 1000 : 0"
       inkscape:vp_z="810 : 600 : 1"
       inkscape:persp3d-origin="405 : 400 : 1"
       id="perspective2603" />
  </defs>
  <g
     inkscape:groupmode="layer"
     id="layer1"
     inkscape:label="staff"
     sodipodi:insensitive="true">
    <g
       transform="translate(5.0000057,191.4673)"
       id="g1934">
      <path
         d="M 4.2160405,395.78396 L 795.78395,395.78396"
         style="fill:none;fill-rule:evenodd;stroke:#131516;stroke-width:8.43207264"
         id="path11" />
      <path
         d="M 4.2160405,635.78396 L 795.78395,635.78396"
         style="fill:none;fill-rule:evenodd;stroke:#131516;stroke-width:8.43207264"
         id="path13" />
      <path
         d="M 4.2160405,515.78396 L 795.78395,515.78396"
         style="fill:none;fill-rule:evenodd;stroke:#131516;stroke-width:8.43207264"
         id="path15" />
      <path
         d="M 4.2160405,275.78396 L 795.78395,275.78396"
         style="fill:none;fill-rule:evenodd;stroke:#131516;stroke-width:8.43207264"
         id="path17" />
      <path
         d="M 4.2160405,155.78396 L 795.78395,155.78396"
         style="fill:none;fill-rule:evenodd;stroke:#131516;stroke-width:8.43207264"
         id="path19" />
    </g>
  </g>
  <g
     inkscape:groupmode="layer"
     id="layer2"
     inkscape:label="clef">
    <path
       id="path9"
       style="fill:#131516;fill-rule:evenodd;stroke:#131516;stroke-width:0.60229105"
       d="M 253.15412,763.98044 C 240.6871,766.53718 229.13339,773.37787 218.10574,784.2748 C 207.06431,795.37176 201.15385,808.02874 200.18764,822.03186 C 199.58032,830.83382 201.89814,841.04359 206.98199,852.04721 C 212.05202,863.25086 220.33707,871.66139 231.42225,877.45119 C 235.17713,878.51425 236.84387,880.63923 236.65063,883.43985 C 236.58163,884.44008 235.10888,885.34345 231.64465,885.90841 C 213.71382,880.04827 199.35035,869.20836 188.72718,853.80259 C 178.1178,838.19679 173.26131,820.97795 174.18533,801.74601 C 176.20862,781.18294 183.75015,762.4076 196.79611,745.62002 C 210.05642,728.64625 226.36686,717.10886 245.72747,711.00783 L 236.79086,639.03732 C 204.14235,662.5122 177.24023,687.38857 155.85634,714.05266 C 134.48625,740.51673 122.37548,770.03162 119.32349,802.58353 C 118.71694,817.21445 120.7449,831.62515 125.42117,845.6156 C 130.08363,859.80609 137.65014,872.78998 148.09311,884.96737 C 169.19336,909.1359 197.85701,922.97248 233.66922,926.64946 C 245.9568,926.6933 259.14313,925.39219 273.42874,922.75994 L 253.15412,763.98044 z M 267.73035,762.97623 L 288.39876,918.96892 C 320.13628,908.69698 337.44053,882.75637 340.28393,841.5472 C 339.43155,827.61961 336.27671,814.94012 330.21782,803.46722 C 324.37326,791.80814 316.15723,782.39737 305.36919,775.22112 C 294.58117,768.04485 282.16857,763.97245 267.73035,762.97623 z M 240.97652,552.09347 C 247.87009,548.54918 255.97336,542.07342 264.87148,532.83853 C 273.75577,523.80367 282.56376,512.95461 291.06731,500.67754 C 299.7852,488.21426 306.91264,475.44025 312.44965,462.35552 C 317.97284,449.47082 321.04827,437.02021 321.84883,425.41763 C 322.1939,420.41652 322.13791,415.38773 321.43893,410.91757 C 321.1337,403.66062 319.31434,397.90719 315.76652,393.84344 C 312.20488,389.97974 307.53017,387.64723 301.51426,387.23213 C 289.4824,386.40196 278.14303,393.05643 267.49615,407.19557 C 259.19312,419.48648 251.92765,434.26093 246.32892,451.16035 C 240.51587,468.24598 236.72192,485.26995 235.12001,502.64614 C 234.75619,522.51973 236.84665,538.94472 240.97652,552.09347 z M 227.54252,562.82436 C 220.7547,529.79451 218.0189,496.44125 219.33512,462.7646 C 221.02637,441.17364 224.6263,421.12134 230.13492,402.60771 C 235.443,384.08026 242.37643,368.27791 250.96279,354.80059 C 259.34864,341.30942 268.703,331.30203 278.8254,324.76456 C 287.8899,318.95811 294.34101,315.98628 297.75004,316.2215 C 300.35693,316.40137 302.49376,317.5538 304.37484,319.49257 C 306.25592,321.43134 308.65578,324.61187 311.58822,328.83414 C 333.11869,364.2882 342.33476,405.92746 339.04967,453.53805 C 337.48995,476.14308 332.96368,497.94043 325.42943,519.53023 C 318.10954,540.93382 308.05121,561.14348 295.28207,579.75912 C 282.29861,598.56098 267.48927,614.62389 250.63973,628.13406 L 261.4444,708.07234 C 270.33676,707.68092 276.4079,707.29584 279.81692,707.53105 C 295.05727,708.58262 308.47251,712.72422 320.66425,719.99733 C 332.856,727.27046 343.09115,736.61953 351.15534,748.23078 C 359.23334,759.64199 365.19561,772.51519 369.04215,786.85037 C 372.68816,801.17172 374.28745,815.95485 373.23843,831.15822 C 371.6097,854.76348 363.90253,875.93935 350.13074,894.48581 C 336.35896,913.03227 316.72959,925.94864 291.02831,933.42115 C 291.95622,943.33401 293.78364,957.73089 296.73873,976.22552 C 299.47947,994.9063 301.47983,1009.7171 302.73979,1020.6579 C 303.99974,1031.5986 304.08411,1042.0563 303.38016,1052.2586 C 302.28974,1068.0622 297.51346,1081.8023 289.0375,1093.6793 C 280.36103,1105.5424 269.27089,1114.425 255.56657,1120.3134 C 242.06276,1126.2155 227.3899,1128.62 211.74849,1127.5407 C 189.69011,1126.0188 170.86705,1118.4891 155.26549,1105.1518 C 139.67775,1091.6145 132.00003,1074.402 132.66101,1053.1418 C 133.91134,1043.7814 136.7245,1035.1316 141.31484,1027.0064 C 145.90518,1018.8813 151.7888,1012.4534 159.16626,1007.7365 C 166.35698,1002.8057 174.77199,1000.5724 184.23834,1000.6226 C 192.05904,1001.1622 199.32685,1003.8746 206.05556,1008.5599 C 212.56994,1013.4313 217.78453,1019.62 221.48497,1027.3122 C 224.98487,1034.9906 226.62479,1043.3446 226.01747,1052.1465 C 225.2031,1063.9492 220.50235,1073.6746 211.91519,1081.323 C 203.32805,1088.9714 192.81111,1092.4667 180.57874,1091.6226 L 175.96653,1091.3044 C 182.95906,1103.8467 195.36513,1110.9336 213.21238,1112.1651 C 222.23626,1112.7877 231.59871,1111.4237 241.07158,1108.4594 C 250.75877,1105.3089 258.92455,1100.8473 265.98375,1094.9025 C 273.04297,1088.9576 277.92394,1082.4605 280.22561,1075.3835 C 284.20056,1067.4169 286.59157,1056.1251 287.57157,1041.9219 C 288.23411,1032.3198 287.89399,1022.6485 286.75175,1012.9218 C 285.59571,1003.3952 283.65786,990.59871 280.9244,974.73232 C 278.17714,959.06602 276.19788,946.86961 275.15956,938.55712 C 262.92065,940.7276 250.37733,941.47011 237.34282,940.57075 C 215.48498,939.06258 195.13396,933.23643 176.30361,922.8923 C 157.47325,912.54817 141.28391,898.96931 127.54886,881.94186 C 114.01434,864.92824 103.82635,846.13556 97.012476,825.16372 C 90.385334,804.40576 87.637294,782.91049 88.955072,760.89176 C 91.165089,740.54256 96.327852,721.20109 104.81683,703.29511 C 113.3196,685.18906 123.75867,668.22163 136.32076,652.60666 C 148.88285,636.99169 161.74938,622.8047 174.90655,610.24575 C 188.25045,597.90066 205.66669,582.01763 227.54252,562.82436 z" />
  </g>
  <g
     inkscape:groupmode="layer"
     id="layer3"
     inkscape:label="label">
    <path
       sodipodi:type="arc"
       style="fill:#ffffff;fill-opacity:1;stroke:none;stroke-width:0.5;stroke-miterlimit:4;stroke-dasharray:none;stroke-dashoffset:0;stroke-opacity:1;display:inline"
       id="path3276"
       sodipodi:cx="656.68701"
       sodipodi:cy="471.37259"
       sodipodi:rx="108.83295"
       sodipodi:ry="108.83295"
       d="M 765.51996,471.37259 A 108.83295,108.83295 0 1 1 547.85406,471.37259 A 108.83295,108.83295 0 1 1 765.51996,471.37259 z"
       transform="matrix(0.9079259,0,0,0.8480015,-12.719727,426.79707)" />
    <text
       xml:space="preserve"
       style="font-size:144px;font-style:normal;font-variant:normal;font-weight:normal;font-stretch:normal;text-align:start;line-height:100%;writing-mode:lr-tb;text-anchor:start;fill:#000000;fill-opacity:1;stroke:none;stroke-width:1px;stroke-linecap:butt;stroke-linejoin:miter;stroke-opacity:1;display:inline;font-family:Sans;-inkscape-font-specification:Sans"
       x="488.82928"
       y="878.9397"
       id="text3278"
       sodipodi:linespacing="100%"><tspan
         sodipodi:role="line"
         id="tspan3280"
         x="488.82928"
         y="878.9397">G4</tspan></text>
  </g>
</svg>
