<?xml version="1.0" encoding="UTF-8" standalone="no"?>
<!-- Created with Inkscape (http://www.inkscape.org/) -->
<svg
   xmlns:dc="http://purl.org/dc/elements/1.1/"
   xmlns:cc="http://creativecommons.org/ns#"
   xmlns:rdf="http://www.w3.org/1999/02/22-rdf-syntax-ns#"
   xmlns:svg="http://www.w3.org/2000/svg"
   xmlns="http://www.w3.org/2000/svg"
   xmlns:sodipodi="http://sodipodi.sourceforge.net/DTD/sodipodi-0.dtd"
   xmlns:inkscape="http://www.inkscape.org/namespaces/inkscape"
   version="1.0"
   width="810"
   height="1200"
   viewBox="0 0 810 1200"
   id="svg1894"
   sodipodi:version="0.32"
   inkscape:version="0.46"
   sodipodi:docname="Subbass_clef_with_ref.svg"
   inkscape:output_extension="org.inkscape.output.svg.inkscape">
  <metadata
     id="metadata2533">
    <rdf:RDF>
      <cc:Work
         rdf:about="">
        <dc:format>image/svg+xml</dc:format>
        <dc:type
           rdf:resource="http://purl.org/dc/dcmitype/StillImage" />
      </cc:Work>
    </rdf:RDF>
  </metadata>
  <sodipodi:namedview
     inkscape:window-height="838"
     inkscape:window-width="1489"
     inkscape:pageshadow="2"
     inkscape:pageopacity="0.0"
     guidetolerance="10.0"
     gridtolerance="10.0"
     objecttolerance="10.0"
     borderopacity="1.0"
     bordercolor="#666666"
     pagecolor="#ffffff"
     id="base"
     showgrid="false"
     inkscape:zoom="1.0842304"
     inkscape:cx="468.53292"
     inkscape:cy="844.24456"
     inkscape:window-x="166"
     inkscape:window-y="94"
     inkscape:current-layer="layer2" />
  <defs
     id="defs1896">
    <inkscape:perspective
       sodipodi:type="inkscape:persp3d"
       inkscape:vp_x="0 : 600 : 1"
       inkscape:vp_y="0 : 1000 : 0"
       inkscape:vp_z="810 : 600 : 1"
       inkscape:persp3d-origin="405 : 400 : 1"
       id="perspective2535" />
    <style
       type="text/css"
       id="style6" />
  </defs>
  <g
     inkscape:groupmode="layer"
     id="layer1"
     inkscape:label="staff"
     style="display:inline">
    <g
       transform="translate(8.39131,189.08701)"
       id="g1934">
      <path
         d="M 4.2160405,395.78396 L 795.78395,395.78396"
         style="fill:none;fill-rule:evenodd;stroke:#131516;stroke-width:8.43207264"
         id="path11" />
      <path
         d="M 4.2160405,635.78396 L 795.78395,635.78396"
         style="fill:none;fill-rule:evenodd;stroke:#131516;stroke-width:8.43207264"
         id="path13" />
      <path
         d="M 4.2160405,515.78396 L 795.78395,515.78396"
         style="fill:none;fill-rule:evenodd;stroke:#131516;stroke-width:8.43207264"
         id="path15" />
      <path
         d="M 4.2160405,275.78396 L 795.78395,275.78396"
         style="fill:none;fill-rule:evenodd;stroke:#131516;stroke-width:8.43207264"
         id="path17" />
      <path
         d="M 4.2160405,155.78396 L 795.78395,155.78396"
         style="fill:none;fill-rule:evenodd;stroke:#131516;stroke-width:8.43207264"
         id="path19" />
    </g>
  </g>
  <g
     inkscape:groupmode="layer"
     id="layer2"
     inkscape:label="clef"
     style="display:inline">
    <path
       d="M 43.92769,611.00229 C 76.68501,588.88352 101.14934,572.1394 116.90602,560.56323 C 132.66272,549.19375 149.2487,534.93025 166.24934,517.9794 C 183.24997,501.02857 197.55538,481.80384 209.16557,460.51194 C 218.28787,444.8014 226.16621,426.61027 232.59328,405.9385 C 239.02036,385.47347 242.33754,365.6286 242.95953,346.81731 C 242.95953,329.2463 240.67894,312.5022 235.91049,296.79165 C 231.34932,280.87441 223.47099,267.8512 212.27544,257.30862 C 201.07991,246.97273 186.56716,241.80481 168.52991,241.80481 C 151.11462,241.80481 134.73596,245.319 119.39393,252.14067 C 104.25921,259.16907 93.47832,270.33183 87.46591,286.04235 C 87.46591,287.48937 86.6366,289.34982 85.39266,292.03715 C 85.8073,295.34465 87.46591,297.82525 90.57578,299.6857 C 93.68565,301.54617 96.38086,302.37303 98.86877,302.37303 C 100.11272,302.37303 103.63724,301.75287 109.02768,300.51258 C 114.62545,299.27227 119.18661,298.4454 122.91844,298.4454 C 133.90665,298.4454 143.65093,302.37303 152.5659,310.02157 C 161.27355,317.67012 165.62735,326.97242 165.62735,337.92845 C 165.62735,345.78371 163.34679,353.22555 158.99297,360.04722 C 154.63915,366.86891 148.62672,372.45027 140.95571,376.37791 C 133.28469,380.51226 124.78438,382.3727 115.66208,382.3727 C 99.07608,382.3727 84.978,377.41148 73.36781,367.28234 C 61.96494,356.94645 56.15984,343.92325 56.15984,327.59258 C 56.15984,306.7141 62.58693,288.72967 75.23373,273.43258 C 88.08788,258.1355 104.25921,246.76602 124.16238,239.11747 C 143.85825,231.26221 163.76144,227.54129 184.07927,227.54129 C 206.26302,227.54129 227.41017,233.12266 247.10603,244.49212 C 267.0092,255.65487 282.55857,271.1587 294.16875,290.38342 C 305.77894,309.81486 311.79135,330.48662 311.79135,352.8121 C 311.79135,392.50188 298.52258,429.29759 271.985,463.40599 C 245.44741,497.51437 212.6901,527.07497 173.50571,552.29452 C 147.38277,569.45206 105.08851,592.60443 46.83022,621.7516 L 43.92769,611.00229 z M 331.90187,291.2103 C 331.90187,283.76845 334.59709,277.56693 339.98755,272.60571 C 345.17066,267.43776 351.59773,264.95716 359.26875,264.95716 C 365.90316,264.95716 372.12288,267.8512 377.72066,273.43258 C 383.31842,278.80724 386.01366,285.21548 386.01366,292.24388 C 386.01366,299.6857 383.11111,306.09395 377.72066,311.26188 C 371.91557,316.22311 365.4885,318.70372 358.23212,318.70372 C 350.5611,318.70372 344.34135,316.22311 339.36557,310.64173 C 334.38977,305.26707 331.90187,298.85883 331.90187,291.2103 z M 331.90187,399.53026 C 331.90187,392.08843 334.59709,385.68018 339.57289,380.71898 C 344.75601,375.55104 351.18307,373.07043 359.26875,373.07043 C 365.90316,373.07043 371.91557,375.75775 377.72066,381.33913 C 383.11111,386.92051 386.01366,392.91531 386.01366,399.53026 C 386.01366,407.59225 383.31842,414.0005 378.1353,419.16843 C 372.74486,424.33636 366.52513,427.02369 359.26875,427.02369 C 351.18307,427.02369 344.75601,424.33636 339.57289,419.37515 C 334.59709,414.41393 331.90187,407.79897 331.90187,399.53026 z"
       style="fill:#000000;stroke:#131516;stroke-width:0.62106282"
       id="path2070" />
  </g>
  <g
     inkscape:groupmode="layer"
     id="layer3"
     inkscape:label="label">
    <path
       sodipodi:type="arc"
       style="fill:#ffffff;fill-opacity:1;stroke:none;stroke-width:0.5;stroke-miterlimit:4;stroke-dasharray:none;stroke-dashoffset:0;stroke-opacity:1;display:inline"
       id="path3276"
       sodipodi:cx="656.68701"
       sodipodi:cy="471.37259"
       sodipodi:rx="108.83295"
       sodipodi:ry="108.83295"
       d="M 765.51996,471.37259 A 108.83295,108.83295 0 1 1 547.85406,471.37259 A 108.83295,108.83295 0 1 1 765.51996,471.37259 z"
       transform="matrix(0.8147056,0,0,0.8480015,30.519184,-54.76814)" />
    <text
       xml:space="preserve"
       style="font-size:144px;font-style:normal;font-variant:normal;font-weight:normal;font-stretch:normal;text-align:start;line-height:100%;writing-mode:lr-tb;text-anchor:start;fill:#000000;fill-opacity:1;stroke:none;stroke-width:1px;stroke-linecap:butt;stroke-linejoin:miter;stroke-opacity:1;display:inline;font-family:Sans;-inkscape-font-specification:Sans"
       x="480.99704"
       y="397.37445"
       id="text3278"
       sodipodi:linespacing="100%"><tspan
         sodipodi:role="line"
         id="tspan3280"
         x="480.99704"
         y="397.37445">F3</tspan></text>
  </g>
</svg>
