<svg xmlns="http://www.w3.org/2000/svg" width="11503.57" height="13947.84" viewBox="0 0 10.78 13.08"><path fill="currentColor" d="M8.94 5.85C7.72 5.85 7.07 4.8 7.07 4c0-.96.68-1.93 1.8-1.93.1 0 .22 0 .35.02-.7-.95-1.8-1.5-3-1.5-2.63 0-2.8 1.82-2.8 4.64V7.8c0 2.8.17 4.65 2.8 4.65 2 0 3.47-1.74 3.94-3.76.05-.2.18-.28.3-.28.15 0 .32.1.32.3 0 2.34-2.6 4.34-4.55 4.34-1.7 0-3.42-.53-4.6-1.75C.43 10.07 0 8.3 0 6.53 0 4.77.42 3 1.64 1.72 2.8.5 4.54 0 6.24 0 8.4 0 10.2 1.6 10.6 3.74v.32c0 1-.75 1.8-1.67 1.8z"/></svg>